<?xml version="1.0" standalone="no"?>
<svg xmlns="http://www.w3.org/2000/svg" width="1024" height="1024" viewBox="0 0 1024 1024"><defs><clipPath id="clip-path-dot-color"><rect x="66" y="282" width="27" height="27" transform="rotate(0,79.5,295.5)"/><rect x="66" y="309" width="27" height="27" transform="rotate(0,79.5,322.5)"/><rect x="66" y="336" width="27" height="27" transform="rotate(0,79.5,349.5)"/><rect x="66" y="390" width="27" height="27" transform="rotate(0,79.5,403.5)"/><rect x="66" y="417" width="27" height="27" transform="rotate(0,79.5,430.5)"/><rect x="66" y="498" width="27" height="27" transform="rotate(0,79.5,511.5)"/><rect x="66" y="525" width="27" height="27" transform="rotate(0,79.5,538.5)"/><rect x="66" y="606" width="27" height="27" transform="rotate(0,79.5,619.5)"/><rect x="66" y="687" width="27" height="27" transform="rotate(0,79.5,700.5)"/><rect x="66" y="714" width="27" height="27" transform="rotate(0,79.5,727.5)"/><rect x="93" y="282" width="27" height="27" transform="rotate(0,106.5,295.5)"/><rect x="93" y="309" width="27" height="27" transform="rotate(0,106.5,322.5)"/><rect x="93" y="336" width="27" height="27" transform="rotate(0,106.5,349.5)"/><rect x="93" y="390" width="27" height="27" transform="rotate(0,106.5,403.5)"/><rect x="93" y="417" width="27" height="27" transform="rotate(0,106.5,430.5)"/><rect x="93" y="471" width="27" height="27" transform="rotate(0,106.5,484.5)"/><rect x="93" y="498" width="27" height="27" transform="rotate(0,106.5,511.5)"/><rect x="93" y="579" width="27" height="27" transform="rotate(0,106.5,592.5)"/><rect x="93" y="660" width="27" height="27" transform="rotate(0,106.5,673.5)"/><rect x="93" y="714" width="27" height="27" transform="rotate(0,106.5,727.5)"/><rect x="120" y="282" width="27" height="27" transform="rotate(0,133.5,295.5)"/><rect x="120" y="336" width="27" height="27" transform="rotate(0,133.5,349.5)"/><rect x="120" y="363" width="27" height="27" transform="rotate(0,133.5,376.5)"/><rect x="120" y="390" width="27" height="27" transform="rotate(0,133.5,403.5)"/><rect x="120" y="417" width="27" height="27" transform="rotate(0,133.5,430.5)"/><rect x="120" y="444" width="27" height="27" transform="rotate(0,133.5,457.5)"/><rect x="120" y="471" width="27" height="27" transform="rotate(0,133.5,484.5)"/><rect x="120" y="525" width="27" height="27" transform="rotate(0,133.5,538.5)"/><rect x="120" y="552" width="27" height="27" transform="rotate(0,133.5,565.5)"/><rect x="120" y="606" width="27" height="27" transform="rotate(0,133.5,619.5)"/><rect x="120" y="633" width="27" height="27" transform="rotate(0,133.5,646.5)"/><rect x="120" y="660" width="27" height="27" transform="rotate(0,133.5,673.5)"/><rect x="120" y="687" width="27" height="27" transform="rotate(0,133.5,700.5)"/><rect x="120" y="714" width="27" height="27" transform="rotate(0,133.5,727.5)"/><rect x="147" y="309" width="27" height="27" transform="rotate(0,160.5,322.5)"/><rect x="147" y="417" width="27" height="27" transform="rotate(0,160.5,430.5)"/><rect x="147" y="471" width="27" height="27" transform="rotate(0,160.5,484.5)"/><rect x="147" y="498" width="27" height="27" transform="rotate(0,160.5,511.5)"/><rect x="147" y="687" width="27" height="27" transform="rotate(0,160.5,700.5)"/><rect x="174" y="444" width="27" height="27" transform="rotate(0,187.5,457.5)"/><rect x="174" y="471" width="27" height="27" transform="rotate(0,187.5,484.5)"/><rect x="174" y="498" width="27" height="27" transform="rotate(0,187.5,511.5)"/><rect x="174" y="579" width="27" height="27" transform="rotate(0,187.5,592.5)"/><rect x="174" y="714" width="27" height="27" transform="rotate(0,187.5,727.5)"/><rect x="201" y="282" width="27" height="27" transform="rotate(0,214.5,295.5)"/><rect x="201" y="309" width="27" height="27" transform="rotate(0,214.5,322.5)"/><rect x="201" y="417" width="27" height="27" transform="rotate(0,214.5,430.5)"/><rect x="201" y="498" width="27" height="27" transform="rotate(0,214.5,511.5)"/><rect x="201" y="525" width="27" height="27" transform="rotate(0,214.5,538.5)"/><rect x="201" y="579" width="27" height="27" transform="rotate(0,214.5,592.5)"/><rect x="201" y="633" width="27" height="27" transform="rotate(0,214.5,646.5)"/><rect x="228" y="282" width="27" height="27" transform="rotate(0,241.5,295.5)"/><rect x="228" y="336" width="27" height="27" transform="rotate(0,241.5,349.5)"/><rect x="228" y="390" width="27" height="27" transform="rotate(0,241.5,403.5)"/><rect x="228" y="444" width="27" height="27" transform="rotate(0,241.5,457.5)"/><rect x="228" y="498" width="27" height="27" transform="rotate(0,241.5,511.5)"/><rect x="228" y="552" width="27" height="27" transform="rotate(0,241.5,565.5)"/><rect x="228" y="606" width="27" height="27" transform="rotate(0,241.5,619.5)"/><rect x="228" y="660" width="27" height="27" transform="rotate(0,241.5,673.5)"/><rect x="228" y="714" width="27" height="27" transform="rotate(0,241.5,727.5)"/><rect x="255" y="282" width="27" height="27" transform="rotate(0,268.5,295.5)"/><rect x="255" y="363" width="27" height="27" transform="rotate(0,268.5,376.5)"/><rect x="255" y="417" width="27" height="27" transform="rotate(0,268.5,430.5)"/><rect x="255" y="471" width="27" height="27" transform="rotate(0,268.5,484.5)"/><rect x="255" y="579" width="27" height="27" transform="rotate(0,268.5,592.5)"/><rect x="255" y="606" width="27" height="27" transform="rotate(0,268.5,619.5)"/><rect x="255" y="633" width="27" height="27" transform="rotate(0,268.5,646.5)"/><rect x="255" y="714" width="27" height="27" transform="rotate(0,268.5,727.5)"/><rect x="282" y="120" width="27" height="27" transform="rotate(0,295.5,133.5)"/><rect x="282" y="147" width="27" height="27" transform="rotate(0,295.5,160.5)"/><rect x="282" y="174" width="27" height="27" transform="rotate(0,295.5,187.5)"/><rect x="282" y="228" width="27" height="27" transform="rotate(0,295.5,241.5)"/><rect x="282" y="282" width="27" height="27" transform="rotate(0,295.5,295.5)"/><rect x="282" y="309" width="27" height="27" transform="rotate(0,295.5,322.5)"/><rect x="282" y="363" width="27" height="27" transform="rotate(0,295.5,376.5)"/><rect x="282" y="390" width="27" height="27" transform="rotate(0,295.5,403.5)"/><rect x="282" y="444" width="27" height="27" transform="rotate(0,295.5,457.5)"/><rect x="282" y="633" width="27" height="27" transform="rotate(0,295.5,646.5)"/><rect x="282" y="660" width="27" height="27" transform="rotate(0,295.5,673.5)"/><rect x="282" y="714" width="27" height="27" transform="rotate(0,295.5,727.5)"/><rect x="282" y="741" width="27" height="27" transform="rotate(0,295.5,754.5)"/><rect x="282" y="768" width="27" height="27" transform="rotate(0,295.5,781.5)"/><rect x="282" y="795" width="27" height="27" transform="rotate(0,295.5,808.5)"/><rect x="282" y="876" width="27" height="27" transform="rotate(0,295.5,889.5)"/><rect x="282" y="903" width="27" height="27" transform="rotate(0,295.5,916.5)"/><rect x="282" y="930" width="27" height="27" transform="rotate(0,295.5,943.5)"/><rect x="309" y="66" width="27" height="27" transform="rotate(0,322.5,79.5)"/><rect x="309" y="120" width="27" height="27" transform="rotate(0,322.5,133.5)"/><rect x="309" y="147" width="27" height="27" transform="rotate(0,322.5,160.5)"/><rect x="309" y="174" width="27" height="27" transform="rotate(0,322.5,187.5)"/><rect x="309" y="201" width="27" height="27" transform="rotate(0,322.5,214.5)"/><rect x="309" y="309" width="27" height="27" transform="rotate(0,322.5,322.5)"/><rect x="309" y="336" width="27" height="27" transform="rotate(0,322.5,349.5)"/><rect x="309" y="363" width="27" height="27" transform="rotate(0,322.5,376.5)"/><rect x="309" y="390" width="27" height="27" transform="rotate(0,322.5,403.5)"/><rect x="309" y="417" width="27" height="27" transform="rotate(0,322.5,430.5)"/><rect x="309" y="471" width="27" height="27" transform="rotate(0,322.5,484.5)"/><rect x="309" y="498" width="27" height="27" transform="rotate(0,322.5,511.5)"/><rect x="309" y="660" width="27" height="27" transform="rotate(0,322.5,673.5)"/><rect x="309" y="741" width="27" height="27" transform="rotate(0,322.5,754.5)"/><rect x="309" y="768" width="27" height="27" transform="rotate(0,322.5,781.5)"/><rect x="309" y="876" width="27" height="27" transform="rotate(0,322.5,889.5)"/><rect x="309" y="903" width="27" height="27" transform="rotate(0,322.5,916.5)"/><rect x="309" y="930" width="27" height="27" transform="rotate(0,322.5,943.5)"/><rect x="336" y="93" width="27" height="27" transform="rotate(0,349.5,106.5)"/><rect x="336" y="147" width="27" height="27" transform="rotate(0,349.5,160.5)"/><rect x="336" y="228" width="27" height="27" transform="rotate(0,349.5,241.5)"/><rect x="336" y="255" width="27" height="27" transform="rotate(0,349.5,268.5)"/><rect x="336" y="282" width="27" height="27" transform="rotate(0,349.5,295.5)"/><rect x="336" y="309" width="27" height="27" transform="rotate(0,349.5,322.5)"/><rect x="336" y="336" width="27" height="27" transform="rotate(0,349.5,349.5)"/><rect x="336" y="444" width="27" height="27" transform="rotate(0,349.5,457.5)"/><rect x="336" y="498" width="27" height="27" transform="rotate(0,349.5,511.5)"/><rect x="336" y="579" width="27" height="27" transform="rotate(0,349.5,592.5)"/><rect x="336" y="660" width="27" height="27" transform="rotate(0,349.5,673.5)"/><rect x="336" y="768" width="27" height="27" transform="rotate(0,349.5,781.5)"/><rect x="336" y="795" width="27" height="27" transform="rotate(0,349.5,808.5)"/><rect x="336" y="849" width="27" height="27" transform="rotate(0,349.5,862.5)"/><rect x="336" y="876" width="27" height="27" transform="rotate(0,349.5,889.5)"/><rect x="336" y="903" width="27" height="27" transform="rotate(0,349.5,916.5)"/><rect x="363" y="66" width="27" height="27" transform="rotate(0,376.5,79.5)"/><rect x="363" y="93" width="27" height="27" transform="rotate(0,376.5,106.5)"/><rect x="363" y="147" width="27" height="27" transform="rotate(0,376.5,160.5)"/><rect x="363" y="255" width="27" height="27" transform="rotate(0,376.5,268.5)"/><rect x="363" y="336" width="27" height="27" transform="rotate(0,376.5,349.5)"/><rect x="363" y="714" width="27" height="27" transform="rotate(0,376.5,727.5)"/><rect x="363" y="741" width="27" height="27" transform="rotate(0,376.5,754.5)"/><rect x="363" y="876" width="27" height="27" transform="rotate(0,376.5,889.5)"/><rect x="363" y="903" width="27" height="27" transform="rotate(0,376.5,916.5)"/><rect x="390" y="93" width="27" height="27" transform="rotate(0,403.5,106.5)"/><rect x="390" y="147" width="27" height="27" transform="rotate(0,403.5,160.5)"/><rect x="390" y="174" width="27" height="27" transform="rotate(0,403.5,187.5)"/><rect x="390" y="228" width="27" height="27" transform="rotate(0,403.5,241.5)"/><rect x="390" y="255" width="27" height="27" transform="rotate(0,403.5,268.5)"/><rect x="390" y="282" width="27" height="27" transform="rotate(0,403.5,295.5)"/><rect x="390" y="660" width="27" height="27" transform="rotate(0,403.5,673.5)"/><rect x="390" y="687" width="27" height="27" transform="rotate(0,403.5,700.5)"/><rect x="390" y="714" width="27" height="27" transform="rotate(0,403.5,727.5)"/><rect x="390" y="795" width="27" height="27" transform="rotate(0,403.5,808.5)"/><rect x="390" y="849" width="27" height="27" transform="rotate(0,403.5,862.5)"/><rect x="417" y="93" width="27" height="27" transform="rotate(0,430.5,106.5)"/><rect x="417" y="147" width="27" height="27" transform="rotate(0,430.5,160.5)"/><rect x="417" y="201" width="27" height="27" transform="rotate(0,430.5,214.5)"/><rect x="417" y="255" width="27" height="27" transform="rotate(0,430.5,268.5)"/><rect x="417" y="309" width="27" height="27" transform="rotate(0,430.5,322.5)"/><rect x="417" y="687" width="27" height="27" transform="rotate(0,430.5,700.5)"/><rect x="417" y="768" width="27" height="27" transform="rotate(0,430.5,781.5)"/><rect x="417" y="822" width="27" height="27" transform="rotate(0,430.5,835.5)"/><rect x="417" y="849" width="27" height="27" transform="rotate(0,430.5,862.5)"/><rect x="417" y="930" width="27" height="27" transform="rotate(0,430.5,943.5)"/><rect x="444" y="120" width="27" height="27" transform="rotate(0,457.5,133.5)"/><rect x="444" y="147" width="27" height="27" transform="rotate(0,457.5,160.5)"/><rect x="444" y="174" width="27" height="27" transform="rotate(0,457.5,187.5)"/><rect x="444" y="201" width="27" height="27" transform="rotate(0,457.5,214.5)"/><rect x="444" y="228" width="27" height="27" transform="rotate(0,457.5,241.5)"/><rect x="444" y="255" width="27" height="27" transform="rotate(0,457.5,268.5)"/><rect x="444" y="309" width="27" height="27" transform="rotate(0,457.5,322.5)"/><rect x="444" y="660" width="27" height="27" transform="rotate(0,457.5,673.5)"/><rect x="444" y="741" width="27" height="27" transform="rotate(0,457.5,754.5)"/><rect x="444" y="795" width="27" height="27" transform="rotate(0,457.5,808.5)"/><rect x="444" y="822" width="27" height="27" transform="rotate(0,457.5,835.5)"/><rect x="444" y="903" width="27" height="27" transform="rotate(0,457.5,916.5)"/><rect x="471" y="66" width="27" height="27" transform="rotate(0,484.5,79.5)"/><rect x="471" y="147" width="27" height="27" transform="rotate(0,484.5,160.5)"/><rect x="471" y="201" width="27" height="27" transform="rotate(0,484.5,214.5)"/><rect x="471" y="309" width="27" height="27" transform="rotate(0,484.5,322.5)"/><rect x="471" y="336" width="27" height="27" transform="rotate(0,484.5,349.5)"/><rect x="471" y="660" width="27" height="27" transform="rotate(0,484.5,673.5)"/><rect x="471" y="714" width="27" height="27" transform="rotate(0,484.5,727.5)"/><rect x="471" y="741" width="27" height="27" transform="rotate(0,484.5,754.5)"/><rect x="471" y="822" width="27" height="27" transform="rotate(0,484.5,835.5)"/><rect x="471" y="849" width="27" height="27" transform="rotate(0,484.5,862.5)"/><rect x="471" y="930" width="27" height="27" transform="rotate(0,484.5,943.5)"/><rect x="498" y="66" width="27" height="27" transform="rotate(0,511.5,79.5)"/><rect x="498" y="228" width="27" height="27" transform="rotate(0,511.5,241.5)"/><rect x="498" y="282" width="27" height="27" transform="rotate(0,511.5,295.5)"/><rect x="498" y="309" width="27" height="27" transform="rotate(0,511.5,322.5)"/><rect x="498" y="687" width="27" height="27" transform="rotate(0,511.5,700.5)"/><rect x="498" y="822" width="27" height="27" transform="rotate(0,511.5,835.5)"/><rect x="498" y="876" width="27" height="27" transform="rotate(0,511.5,889.5)"/><rect x="498" y="930" width="27" height="27" transform="rotate(0,511.5,943.5)"/><rect x="525" y="66" width="27" height="27" transform="rotate(0,538.5,79.5)"/><rect x="525" y="120" width="27" height="27" transform="rotate(0,538.5,133.5)"/><rect x="525" y="147" width="27" height="27" transform="rotate(0,538.5,160.5)"/><rect x="525" y="255" width="27" height="27" transform="rotate(0,538.5,268.5)"/><rect x="525" y="309" width="27" height="27" transform="rotate(0,538.5,322.5)"/><rect x="525" y="336" width="27" height="27" transform="rotate(0,538.5,349.5)"/><rect x="525" y="687" width="27" height="27" transform="rotate(0,538.5,700.5)"/><rect x="525" y="714" width="27" height="27" transform="rotate(0,538.5,727.5)"/><rect x="525" y="741" width="27" height="27" transform="rotate(0,538.5,754.5)"/><rect x="525" y="768" width="27" height="27" transform="rotate(0,538.5,781.5)"/><rect x="525" y="795" width="27" height="27" transform="rotate(0,538.5,808.5)"/><rect x="552" y="147" width="27" height="27" transform="rotate(0,565.5,160.5)"/><rect x="552" y="174" width="27" height="27" transform="rotate(0,565.5,187.5)"/><rect x="552" y="228" width="27" height="27" transform="rotate(0,565.5,241.5)"/><rect x="552" y="660" width="27" height="27" transform="rotate(0,565.5,673.5)"/><rect x="552" y="876" width="27" height="27" transform="rotate(0,565.5,889.5)"/><rect x="579" y="66" width="27" height="27" transform="rotate(0,592.5,79.5)"/><rect x="579" y="147" width="27" height="27" transform="rotate(0,592.5,160.5)"/><rect x="579" y="201" width="27" height="27" transform="rotate(0,592.5,214.5)"/><rect x="579" y="255" width="27" height="27" transform="rotate(0,592.5,268.5)"/><rect x="579" y="282" width="27" height="27" transform="rotate(0,592.5,295.5)"/><rect x="579" y="309" width="27" height="27" transform="rotate(0,592.5,322.5)"/><rect x="579" y="336" width="27" height="27" transform="rotate(0,592.5,349.5)"/><rect x="579" y="660" width="27" height="27" transform="rotate(0,592.5,673.5)"/><rect x="579" y="687" width="27" height="27" transform="rotate(0,592.5,700.5)"/><rect x="579" y="714" width="27" height="27" transform="rotate(0,592.5,727.5)"/><rect x="579" y="741" width="27" height="27" transform="rotate(0,592.5,754.5)"/><rect x="579" y="795" width="27" height="27" transform="rotate(0,592.5,808.5)"/><rect x="579" y="822" width="27" height="27" transform="rotate(0,592.5,835.5)"/><rect x="579" y="849" width="27" height="27" transform="rotate(0,592.5,862.5)"/><rect x="579" y="876" width="27" height="27" transform="rotate(0,592.5,889.5)"/><rect x="579" y="903" width="27" height="27" transform="rotate(0,592.5,916.5)"/><rect x="606" y="66" width="27" height="27" transform="rotate(0,619.5,79.5)"/><rect x="606" y="93" width="27" height="27" transform="rotate(0,619.5,106.5)"/><rect x="606" y="147" width="27" height="27" transform="rotate(0,619.5,160.5)"/><rect x="606" y="201" width="27" height="27" transform="rotate(0,619.5,214.5)"/><rect x="606" y="228" width="27" height="27" transform="rotate(0,619.5,241.5)"/><rect x="606" y="255" width="27" height="27" transform="rotate(0,619.5,268.5)"/><rect x="606" y="336" width="27" height="27" transform="rotate(0,619.5,349.5)"/><rect x="606" y="660" width="27" height="27" transform="rotate(0,619.5,673.5)"/><rect x="606" y="714" width="27" height="27" transform="rotate(0,619.5,727.5)"/><rect x="606" y="822" width="27" height="27" transform="rotate(0,619.5,835.5)"/><rect x="606" y="849" width="27" height="27" transform="rotate(0,619.5,862.5)"/><rect x="606" y="903" width="27" height="27" transform="rotate(0,619.5,916.5)"/><rect x="633" y="66" width="27" height="27" transform="rotate(0,646.5,79.5)"/><rect x="633" y="147" width="27" height="27" transform="rotate(0,646.5,160.5)"/><rect x="633" y="201" width="27" height="27" transform="rotate(0,646.5,214.5)"/><rect x="633" y="255" width="27" height="27" transform="rotate(0,646.5,268.5)"/><rect x="633" y="282" width="27" height="27" transform="rotate(0,646.5,295.5)"/><rect x="633" y="309" width="27" height="27" transform="rotate(0,646.5,322.5)"/><rect x="633" y="336" width="27" height="27" transform="rotate(0,646.5,349.5)"/><rect x="633" y="741" width="27" height="27" transform="rotate(0,646.5,754.5)"/><rect x="633" y="876" width="27" height="27" transform="rotate(0,646.5,889.5)"/><rect x="633" y="930" width="27" height="27" transform="rotate(0,646.5,943.5)"/><rect x="660" y="66" width="27" height="27" transform="rotate(0,673.5,79.5)"/><rect x="660" y="147" width="27" height="27" transform="rotate(0,673.5,160.5)"/><rect x="660" y="174" width="27" height="27" transform="rotate(0,673.5,187.5)"/><rect x="660" y="228" width="27" height="27" transform="rotate(0,673.5,241.5)"/><rect x="660" y="390" width="27" height="27" transform="rotate(0,673.5,403.5)"/><rect x="660" y="417" width="27" height="27" transform="rotate(0,673.5,430.5)"/><rect x="660" y="471" width="27" height="27" transform="rotate(0,673.5,484.5)"/><rect x="660" y="525" width="27" height="27" transform="rotate(0,673.5,538.5)"/><rect x="660" y="552" width="27" height="27" transform="rotate(0,673.5,565.5)"/><rect x="660" y="606" width="27" height="27" transform="rotate(0,673.5,619.5)"/><rect x="660" y="633" width="27" height="27" transform="rotate(0,673.5,646.5)"/><rect x="660" y="687" width="27" height="27" transform="rotate(0,673.5,700.5)"/><rect x="660" y="714" width="27" height="27" transform="rotate(0,673.5,727.5)"/><rect x="660" y="795" width="27" height="27" transform="rotate(0,673.5,808.5)"/><rect x="660" y="822" width="27" height="27" transform="rotate(0,673.5,835.5)"/><rect x="660" y="903" width="27" height="27" transform="rotate(0,673.5,916.5)"/><rect x="687" y="66" width="27" height="27" transform="rotate(0,700.5,79.5)"/><rect x="687" y="120" width="27" height="27" transform="rotate(0,700.5,133.5)"/><rect x="687" y="174" width="27" height="27" transform="rotate(0,700.5,187.5)"/><rect x="687" y="309" width="27" height="27" transform="rotate(0,700.5,322.5)"/><rect x="687" y="390" width="27" height="27" transform="rotate(0,700.5,403.5)"/><rect x="687" y="417" width="27" height="27" transform="rotate(0,700.5,430.5)"/><rect x="687" y="444" width="27" height="27" transform="rotate(0,700.5,457.5)"/><rect x="687" y="498" width="27" height="27" transform="rotate(0,700.5,511.5)"/><rect x="687" y="552" width="27" height="27" transform="rotate(0,700.5,565.5)"/><rect x="687" y="633" width="27" height="27" transform="rotate(0,700.5,646.5)"/><rect x="687" y="660" width="27" height="27" transform="rotate(0,700.5,673.5)"/><rect x="687" y="687" width="27" height="27" transform="rotate(0,700.5,700.5)"/><rect x="687" y="849" width="27" height="27" transform="rotate(0,700.5,862.5)"/><rect x="687" y="876" width="27" height="27" transform="rotate(0,700.5,889.5)"/><rect x="687" y="903" width="27" height="27" transform="rotate(0,700.5,916.5)"/><rect x="714" y="66" width="27" height="27" transform="rotate(0,727.5,79.5)"/><rect x="714" y="120" width="27" height="27" transform="rotate(0,727.5,133.5)"/><rect x="714" y="174" width="27" height="27" transform="rotate(0,727.5,187.5)"/><rect x="714" y="201" width="27" height="27" transform="rotate(0,727.5,214.5)"/><rect x="714" y="228" width="27" height="27" transform="rotate(0,727.5,241.5)"/><rect x="714" y="255" width="27" height="27" transform="rotate(0,727.5,268.5)"/><rect x="714" y="282" width="27" height="27" transform="rotate(0,727.5,295.5)"/><rect x="714" y="309" width="27" height="27" transform="rotate(0,727.5,322.5)"/><rect x="714" y="417" width="27" height="27" transform="rotate(0,727.5,430.5)"/><rect x="714" y="444" width="27" height="27" transform="rotate(0,727.5,457.5)"/><rect x="714" y="471" width="27" height="27" transform="rotate(0,727.5,484.5)"/><rect x="714" y="498" width="27" height="27" transform="rotate(0,727.5,511.5)"/><rect x="714" y="525" width="27" height="27" transform="rotate(0,727.5,538.5)"/><rect x="714" y="552" width="27" height="27" transform="rotate(0,727.5,565.5)"/><rect x="714" y="633" width="27" height="27" transform="rotate(0,727.5,646.5)"/><rect x="714" y="660" width="27" height="27" transform="rotate(0,727.5,673.5)"/><rect x="714" y="687" width="27" height="27" transform="rotate(0,727.5,700.5)"/><rect x="714" y="714" width="27" height="27" transform="rotate(0,727.5,727.5)"/><rect x="714" y="741" width="27" height="27" transform="rotate(0,727.5,754.5)"/><rect x="714" y="768" width="27" height="27" transform="rotate(0,727.5,781.5)"/><rect x="714" y="795" width="27" height="27" transform="rotate(0,727.5,808.5)"/><rect x="714" y="822" width="27" height="27" transform="rotate(0,727.5,835.5)"/><rect x="741" y="282" width="27" height="27" transform="rotate(0,754.5,295.5)"/><rect x="741" y="309" width="27" height="27" transform="rotate(0,754.5,322.5)"/><rect x="741" y="363" width="27" height="27" transform="rotate(0,754.5,376.5)"/><rect x="741" y="417" width="27" height="27" transform="rotate(0,754.5,430.5)"/><rect x="741" y="444" width="27" height="27" transform="rotate(0,754.5,457.5)"/><rect x="741" y="498" width="27" height="27" transform="rotate(0,754.5,511.5)"/><rect x="741" y="552" width="27" height="27" transform="rotate(0,754.5,565.5)"/><rect x="741" y="606" width="27" height="27" transform="rotate(0,754.5,619.5)"/><rect x="741" y="633" width="27" height="27" transform="rotate(0,754.5,646.5)"/><rect x="741" y="660" width="27" height="27" transform="rotate(0,754.5,673.5)"/><rect x="741" y="687" width="27" height="27" transform="rotate(0,754.5,700.5)"/><rect x="741" y="714" width="27" height="27" transform="rotate(0,754.5,727.5)"/><rect x="741" y="822" width="27" height="27" transform="rotate(0,754.5,835.5)"/><rect x="741" y="849" width="27" height="27" transform="rotate(0,754.5,862.5)"/><rect x="741" y="876" width="27" height="27" transform="rotate(0,754.5,889.5)"/><rect x="741" y="903" width="27" height="27" transform="rotate(0,754.5,916.5)"/><rect x="741" y="930" width="27" height="27" transform="rotate(0,754.5,943.5)"/><rect x="768" y="336" width="27" height="27" transform="rotate(0,781.5,349.5)"/><rect x="768" y="444" width="27" height="27" transform="rotate(0,781.5,457.5)"/><rect x="768" y="471" width="27" height="27" transform="rotate(0,781.5,484.5)"/><rect x="768" y="579" width="27" height="27" transform="rotate(0,781.5,592.5)"/><rect x="768" y="606" width="27" height="27" transform="rotate(0,781.5,619.5)"/><rect x="768" y="633" width="27" height="27" transform="rotate(0,781.5,646.5)"/><rect x="768" y="714" width="27" height="27" transform="rotate(0,781.5,727.5)"/><rect x="768" y="768" width="27" height="27" transform="rotate(0,781.5,781.5)"/><rect x="768" y="822" width="27" height="27" transform="rotate(0,781.5,835.5)"/><rect x="768" y="876" width="27" height="27" transform="rotate(0,781.5,889.5)"/><rect x="768" y="903" width="27" height="27" transform="rotate(0,781.5,916.5)"/><rect x="795" y="309" width="27" height="27" transform="rotate(0,808.5,322.5)"/><rect x="795" y="336" width="27" height="27" transform="rotate(0,808.5,349.5)"/><rect x="795" y="417" width="27" height="27" transform="rotate(0,808.5,430.5)"/><rect x="795" y="444" width="27" height="27" transform="rotate(0,808.5,457.5)"/><rect x="795" y="471" width="27" height="27" transform="rotate(0,808.5,484.5)"/><rect x="795" y="498" width="27" height="27" transform="rotate(0,808.5,511.5)"/><rect x="795" y="552" width="27" height="27" transform="rotate(0,808.5,565.5)"/><rect x="795" y="579" width="27" height="27" transform="rotate(0,808.5,592.5)"/><rect x="795" y="633" width="27" height="27" transform="rotate(0,808.5,646.5)"/><rect x="795" y="660" width="27" height="27" transform="rotate(0,808.5,673.5)"/><rect x="795" y="687" width="27" height="27" transform="rotate(0,808.5,700.5)"/><rect x="795" y="714" width="27" height="27" transform="rotate(0,808.5,727.5)"/><rect x="795" y="822" width="27" height="27" transform="rotate(0,808.5,835.5)"/><rect x="795" y="876" width="27" height="27" transform="rotate(0,808.5,889.5)"/><rect x="795" y="903" width="27" height="27" transform="rotate(0,808.5,916.5)"/><rect x="795" y="930" width="27" height="27" transform="rotate(0,808.5,943.5)"/><rect x="822" y="282" width="27" height="27" transform="rotate(0,835.5,295.5)"/><rect x="822" y="309" width="27" height="27" transform="rotate(0,835.5,322.5)"/><rect x="822" y="336" width="27" height="27" transform="rotate(0,835.5,349.5)"/><rect x="822" y="444" width="27" height="27" transform="rotate(0,835.5,457.5)"/><rect x="822" y="552" width="27" height="27" transform="rotate(0,835.5,565.5)"/><rect x="822" y="579" width="27" height="27" transform="rotate(0,835.5,592.5)"/><rect x="822" y="606" width="27" height="27" transform="rotate(0,835.5,619.5)"/><rect x="822" y="633" width="27" height="27" transform="rotate(0,835.5,646.5)"/><rect x="822" y="714" width="27" height="27" transform="rotate(0,835.5,727.5)"/><rect x="822" y="741" width="27" height="27" transform="rotate(0,835.5,754.5)"/><rect x="822" y="768" width="27" height="27" transform="rotate(0,835.5,781.5)"/><rect x="822" y="795" width="27" height="27" transform="rotate(0,835.5,808.5)"/><rect x="822" y="822" width="27" height="27" transform="rotate(0,835.5,835.5)"/><rect x="822" y="849" width="27" height="27" transform="rotate(0,835.5,862.5)"/><rect x="822" y="903" width="27" height="27" transform="rotate(0,835.5,916.5)"/><rect x="822" y="930" width="27" height="27" transform="rotate(0,835.5,943.5)"/><rect x="849" y="282" width="27" height="27" transform="rotate(0,862.5,295.5)"/><rect x="849" y="309" width="27" height="27" transform="rotate(0,862.5,322.5)"/><rect x="849" y="336" width="27" height="27" transform="rotate(0,862.5,349.5)"/><rect x="849" y="363" width="27" height="27" transform="rotate(0,862.5,376.5)"/><rect x="849" y="525" width="27" height="27" transform="rotate(0,862.5,538.5)"/><rect x="849" y="660" width="27" height="27" transform="rotate(0,862.5,673.5)"/><rect x="849" y="687" width="27" height="27" transform="rotate(0,862.5,700.5)"/><rect x="849" y="741" width="27" height="27" transform="rotate(0,862.5,754.5)"/><rect x="849" y="822" width="27" height="27" transform="rotate(0,862.5,835.5)"/><rect x="849" y="876" width="27" height="27" transform="rotate(0,862.5,889.5)"/><rect x="849" y="903" width="27" height="27" transform="rotate(0,862.5,916.5)"/><rect x="876" y="282" width="27" height="27" transform="rotate(0,889.5,295.5)"/><rect x="876" y="471" width="27" height="27" transform="rotate(0,889.5,484.5)"/><rect x="876" y="552" width="27" height="27" transform="rotate(0,889.5,565.5)"/><rect x="876" y="579" width="27" height="27" transform="rotate(0,889.5,592.5)"/><rect x="876" y="606" width="27" height="27" transform="rotate(0,889.5,619.5)"/><rect x="876" y="660" width="27" height="27" transform="rotate(0,889.5,673.5)"/><rect x="876" y="687" width="27" height="27" transform="rotate(0,889.5,700.5)"/><rect x="876" y="714" width="27" height="27" transform="rotate(0,889.5,727.5)"/><rect x="876" y="741" width="27" height="27" transform="rotate(0,889.5,754.5)"/><rect x="876" y="768" width="27" height="27" transform="rotate(0,889.5,781.5)"/><rect x="876" y="849" width="27" height="27" transform="rotate(0,889.5,862.5)"/><rect x="876" y="876" width="27" height="27" transform="rotate(0,889.5,889.5)"/><rect x="903" y="309" width="27" height="27" transform="rotate(0,916.5,322.5)"/><rect x="903" y="336" width="27" height="27" transform="rotate(0,916.5,349.5)"/><rect x="903" y="363" width="27" height="27" transform="rotate(0,916.5,376.5)"/><rect x="903" y="390" width="27" height="27" transform="rotate(0,916.5,403.5)"/><rect x="903" y="417" width="27" height="27" transform="rotate(0,916.5,430.5)"/><rect x="903" y="444" width="27" height="27" transform="rotate(0,916.5,457.5)"/><rect x="903" y="471" width="27" height="27" transform="rotate(0,916.5,484.5)"/><rect x="903" y="498" width="27" height="27" transform="rotate(0,916.5,511.5)"/><rect x="903" y="525" width="27" height="27" transform="rotate(0,916.5,538.5)"/><rect x="903" y="606" width="27" height="27" transform="rotate(0,916.5,619.5)"/><rect x="903" y="741" width="27" height="27" transform="rotate(0,916.5,754.5)"/><rect x="903" y="768" width="27" height="27" transform="rotate(0,916.5,781.5)"/><rect x="903" y="795" width="27" height="27" transform="rotate(0,916.5,808.5)"/><rect x="903" y="876" width="27" height="27" transform="rotate(0,916.5,889.5)"/><rect x="930" y="309" width="27" height="27" transform="rotate(0,943.5,322.5)"/><rect x="930" y="336" width="27" height="27" transform="rotate(0,943.5,349.5)"/><rect x="930" y="390" width="27" height="27" transform="rotate(0,943.5,403.5)"/><rect x="930" y="417" width="27" height="27" transform="rotate(0,943.5,430.5)"/><rect x="930" y="471" width="27" height="27" transform="rotate(0,943.5,484.5)"/><rect x="930" y="633" width="27" height="27" transform="rotate(0,943.5,646.5)"/><rect x="930" y="660" width="27" height="27" transform="rotate(0,943.5,673.5)"/><rect x="930" y="687" width="27" height="27" transform="rotate(0,943.5,700.5)"/><rect x="930" y="714" width="27" height="27" transform="rotate(0,943.5,727.5)"/><rect x="930" y="768" width="27" height="27" transform="rotate(0,943.5,781.5)"/><rect x="930" y="849" width="27" height="27" transform="rotate(0,943.5,862.5)"/><rect x="930" y="876" width="27" height="27" transform="rotate(0,943.5,889.5)"/><rect x="930" y="903" width="27" height="27" transform="rotate(0,943.5,916.5)"/></clipPath><clipPath id="clip-path-corners-square-color-0-0"><path d="m 66 66 m 165.375 14.962 l -165.375 -14.962 l 15.75 165.375 c 0 8.663 7.087 15.75 15.75 15.75 h 149.625 v -150.413 c 0 -8.663 -7.087 -15.75 -15.75 -15.75 z m -8.269 142.144 h -105.919 c -6.3 0 -11.419 -5.119 -11.419 -11.419 l -8.663 -114.187 l 114.581 8.269 c 6.3 0 11.419 5.119 11.419 11.34 v 105.998 z"/></clipPath><clipPath id="clip-path-corners-dot-color-0-0"><path d="m 120 120 m 42.12 69.139 l 18.688 8.621 c 2.719 1.273 5.844 -0.984 5.439 -3.992 l -2.43 -20.424 c -0.116 -1.099 0.231 -2.256 0.984 -3.066 l 13.944 -15.101 c 2.025 -2.199 0.868 -5.844 -2.083 -6.422 l -20.192 -4.05 c -1.099 -0.231 -2.083 -0.926 -2.604 -1.909 l -10.067 -17.936 c -1.504 -2.661 -5.265 -2.661 -6.769 0 l -10.067 17.936 c -0.579 0.984 -1.504 1.678 -2.604 1.909 l -20.192 4.05 c -2.951 0.579 -4.108 4.224 -2.083 6.422 l 13.944 15.101 c 0.752 0.81 1.157 1.967 0.984 3.066 l -2.43 20.424 c -0.347 3.009 2.719 5.207 5.439 3.992 l 18.688 -8.621 c 1.215 -0.463 2.372 -0.463 3.414 0 z"/></clipPath><clipPath id="clip-path-corners-square-color-1-0"><path d="m 768 66 m 165.375 14.962 l -165.375 -14.962 l 15.75 165.375 c 0 8.663 7.087 15.75 15.75 15.75 h 149.625 v -150.413 c 0 -8.663 -7.087 -15.75 -15.75 -15.75 z m -8.269 142.144 h -105.919 c -6.3 0 -11.419 -5.119 -11.419 -11.419 l -8.663 -114.187 l 114.581 8.269 c 6.3 0 11.419 5.119 11.419 11.34 v 105.998 z"/></clipPath><clipPath id="clip-path-corners-dot-color-1-0"><path d="m 822 120 m 42.12 69.139 l 18.688 8.621 c 2.719 1.273 5.844 -0.984 5.439 -3.992 l -2.43 -20.424 c -0.116 -1.099 0.231 -2.256 0.984 -3.066 l 13.944 -15.101 c 2.025 -2.199 0.868 -5.844 -2.083 -6.422 l -20.192 -4.05 c -1.099 -0.231 -2.083 -0.926 -2.604 -1.909 l -10.067 -17.936 c -1.504 -2.661 -5.265 -2.661 -6.769 0 l -10.067 17.936 c -0.579 0.984 -1.504 1.678 -2.604 1.909 l -20.192 4.05 c -2.951 0.579 -4.108 4.224 -2.083 6.422 l 13.944 15.101 c 0.752 0.81 1.157 1.967 0.984 3.066 l -2.43 20.424 c -0.347 3.009 2.719 5.207 5.439 3.992 l 18.688 -8.621 c 1.215 -0.463 2.372 -0.463 3.414 0 z"/></clipPath><clipPath id="clip-path-corners-square-color-0-1"><path d="m 66 768 m 165.375 14.962 l -165.375 -14.962 l 15.75 165.375 c 0 8.663 7.087 15.75 15.75 15.75 h 149.625 v -150.413 c 0 -8.663 -7.087 -15.75 -15.75 -15.75 z m -8.269 142.144 h -105.919 c -6.3 0 -11.419 -5.119 -11.419 -11.419 l -8.663 -114.187 l 114.581 8.269 c 6.3 0 11.419 5.119 11.419 11.34 v 105.998 z"/></clipPath><clipPath id="clip-path-corners-dot-color-0-1"><path d="m 120 822 m 42.12 69.139 l 18.688 8.621 c 2.719 1.273 5.844 -0.984 5.439 -3.992 l -2.43 -20.424 c -0.116 -1.099 0.231 -2.256 0.984 -3.066 l 13.944 -15.101 c 2.025 -2.199 0.868 -5.844 -2.083 -6.422 l -20.192 -4.05 c -1.099 -0.231 -2.083 -0.926 -2.604 -1.909 l -10.067 -17.936 c -1.504 -2.661 -5.265 -2.661 -6.769 0 l -10.067 17.936 c -0.579 0.984 -1.504 1.678 -2.604 1.909 l -20.192 4.05 c -2.951 0.579 -4.108 4.224 -2.083 6.422 l 13.944 15.101 c 0.752 0.81 1.157 1.967 0.984 3.066 l -2.43 20.424 c -0.347 3.009 2.719 5.207 5.439 3.992 l 18.688 -8.621 c 1.215 -0.463 2.372 -0.463 3.414 0 z"/></clipPath></defs><rect x="0" y="0" height="1024" width="1024" clip-path="url('#clip-path-background-color')" fill="#ffffff"/><rect x="66" y="66" height="891" width="891" clip-path="url('#clip-path-dot-color')" fill="#000000"/><rect x="66" y="66" height="189" width="189" clip-path="url('#clip-path-corners-square-color-0-0')" fill="#514fc2"/><rect x="120" y="120" height="81" width="81" clip-path="url('#clip-path-corners-dot-color-0-0')" fill="#8c4fc2"/><rect x="768" y="66" height="189" width="189" clip-path="url('#clip-path-corners-square-color-1-0')" fill="#514fc2"/><rect x="822" y="120" height="81" width="81" clip-path="url('#clip-path-corners-dot-color-1-0')" fill="#8c4fc2"/><rect x="66" y="768" height="189" width="189" clip-path="url('#clip-path-corners-square-color-0-1')" fill="#514fc2"/><rect x="120" y="822" height="81" width="81" clip-path="url('#clip-path-corners-dot-color-0-1')" fill="#8c4fc2"/><image href="https://img.qrfy.com/img/large/529dc45a-5b4d-40cc-9d46-cd09b171dc8d.webp" x="363" y="363" width="297px" height="297px"/></svg>